<svg xmlns="http://www.w3.org/2000/svg" xmlns:xlink="http://www.w3.org/1999/xlink" width="1308" zoomAndPan="magnify" viewBox="0 0 980.88 459.749988" height="613" preserveAspectRatio="xMidYMid meet" version="1.2"><defs><clipPath id="6fd137a215"><path d="M 0.207031 0 L 402 0 L 402 401.097656 L 0.207031 401.097656 Z M 0.207031 0 "/></clipPath><clipPath id="b25230ad95"><path d="M 401.945312 401.097656 L 0.207031 401.097656 L 0.207031 0 Z M 401.945312 401.097656 "/></clipPath><clipPath id="cbfa5fe8c9"><path d="M 152.476562 267.652344 L 633 267.652344 L 633 328.6875 L 152.476562 328.6875 Z M 152.476562 267.652344 "/></clipPath><clipPath id="2fb0f41e59"><path d="M 573.734375 267.652344 L 152.476562 267.652344 L 211.660156 328.6875 L 632.921875 328.6875 Z M 573.734375 267.652344 "/></clipPath><clipPath id="95b3117038"><path d="M 133.796875 258.667969 L 614.464844 258.667969 L 614.464844 319.707031 L 133.796875 319.707031 Z M 133.796875 258.667969 "/></clipPath><clipPath id="32e19597c3"><path d="M 555.054688 258.667969 L 133.796875 258.667969 L 192.984375 319.707031 L 614.242188 319.707031 Z M 555.054688 258.667969 "/></clipPath><clipPath id="30e3792a8a"><path d="M 18.792969 58.121094 L 420.695312 58.121094 L 420.695312 459.21875 L 18.792969 459.21875 Z M 18.792969 58.121094 "/></clipPath><clipPath id="b94bfe1b46"><path d="M 420.535156 459.21875 L 18.792969 459.21875 L 18.792969 58.121094 Z M 420.535156 459.21875 "/></clipPath><clipPath id="baffed418c"><path d="M 201.078125 345.128906 L 980.199219 345.128906 L 980.199219 447.421875 L 201.078125 447.421875 Z M 201.078125 345.128906 "/></clipPath></defs><g id="64811d8b33"><g clip-rule="nonzero" clip-path="url(#6fd137a215)"><g clip-rule="nonzero" clip-path="url(#b25230ad95)"><path style=" stroke:none;fill-rule:nonzero;fill:#a6a6a6;fill-opacity:1;" d="M 0.207031 0 L 402.105469 0 L 402.105469 401.097656 L 0.207031 401.097656 Z M 0.207031 0 "/></g></g><g clip-rule="nonzero" clip-path="url(#cbfa5fe8c9)"><g clip-rule="nonzero" clip-path="url(#2fb0f41e59)"><path style=" stroke:none;fill-rule:nonzero;fill:#ae2c19;fill-opacity:1;" d="M 152.476562 267.652344 L 632.90625 267.652344 L 632.90625 328.6875 L 152.476562 328.6875 Z M 152.476562 267.652344 "/></g></g><g clip-rule="nonzero" clip-path="url(#95b3117038)"><g clip-rule="nonzero" clip-path="url(#32e19597c3)"><path style=" stroke:none;fill-rule:nonzero;fill:#9d3121;fill-opacity:1;" d="M 133.796875 258.667969 L 614.226562 258.667969 L 614.226562 319.707031 L 133.796875 319.707031 Z M 133.796875 258.667969 "/></g></g><g clip-rule="nonzero" clip-path="url(#30e3792a8a)"><g clip-rule="nonzero" clip-path="url(#b94bfe1b46)"><path style=" stroke:none;fill-rule:nonzero;fill:#373e4a;fill-opacity:1;" d="M 18.792969 58.121094 L 420.695312 58.121094 L 420.695312 459.21875 L 18.792969 459.21875 Z M 18.792969 58.121094 "/></g></g><g clip-rule="nonzero" clip-path="url(#baffed418c)"><path style=" stroke:none;fill-rule:nonzero;fill:#373e4a;fill-opacity:1;" d="M 201.078125 345.128906 L 980.285156 345.128906 L 980.285156 447.421875 L 201.078125 447.421875 Z M 201.078125 345.128906 "/></g></g></svg>